<?xml version="1.0" standalone="no"?><!DOCTYPE svg PUBLIC "-//W3C//DTD SVG 1.1//EN" "http://www.w3.org/Graphics/SVG/1.1/DTD/svg11.dtd"><svg t="1714125425069" class="icon" viewBox="0 0 1024 1024" version="1.1" xmlns="http://www.w3.org/2000/svg" p-id="6365" xmlns:xlink="http://www.w3.org/1999/xlink" width="200" height="200"><path d="M512 512m-414 0a414 414 0 1 0 828 0 414 414 0 1 0-828 0Z" fill="#F0C48A" p-id="6366"></path><path d="M263.586 637.138a123.27 123.27 0 1 0 246.54 0 123.27 123.27 0 1 0-246.54 0Z" fill="#A4CFF2" p-id="6367"></path><path d="M263.588 637.14c0 34.832 14.452 66.284 37.678 88.7a122.986 122.986 0 0 0 44.554 8.304c68.08 0 123.272-55.19 123.272-123.272 0-34.83-14.45-66.282-37.678-88.7a122.988 122.988 0 0 0-44.554-8.306c-68.08 0.002-123.272 55.194-123.272 123.274z" fill="#D3E6F8" p-id="6368"></path><path d="M390.592 558.948a7.576 7.576 0 0 1 7.632 7.632v3.904c10.472 1.242 19.346 4.614 27.512 9.762 2.84 1.598 5.326 4.26 5.326 8.52 0 5.502-4.436 9.762-9.94 9.762-1.776 0-3.55-0.532-5.326-1.598-6.212-3.728-12.246-6.39-18.282-7.81v34.08c26.978 6.746 38.516 17.572 38.516 36.564 0 19.524-15.264 32.482-37.806 34.612v10.65c0 4.26-3.372 7.632-7.632 7.632s-7.81-3.372-7.81-7.632v-11.006c-13.312-1.42-25.56-6.212-36.386-13.844-3.018-1.952-4.794-4.794-4.794-8.52 0-5.502 4.26-9.762 9.762-9.762 2.13 0 4.26 0.71 5.858 1.952 8.342 6.034 16.508 10.116 26.27 11.892v-34.966c-25.914-6.746-37.984-16.508-37.984-36.564 0-18.992 15.088-32.126 37.274-33.902v-3.728c0-4.258 3.55-7.63 7.81-7.63z m-7.1 60.526v-31.418c-11.36 1.066-17.04 7.1-17.04 14.91 0 7.456 3.372 12.07 17.04 16.508z m14.022 24.672v32.304c11.36-1.242 17.572-6.922 17.572-15.442 0-7.81-3.904-12.602-17.572-16.862z" fill="#4C4372" p-id="6369"></path><path d="M386.86 769.252c-72.848 0-132.114-59.266-132.114-132.112s59.266-132.114 132.114-132.114 132.114 59.266 132.114 132.114c0 72.848-59.266 132.112-132.114 132.112z m0-246.636c-63.15 0-114.524 51.376-114.524 114.524s51.376 114.524 114.524 114.524 114.524-51.376 114.524-114.524c0-63.15-51.374-114.524-114.524-114.524z" fill="#4C4372" p-id="6370"></path><path d="M300.658 431.384h37.118l-18.558 34.562-18.56 34.56-18.558-34.56-18.558-34.562z" fill="#FD919E" p-id="6371"></path><path d="M300.658 509.302c-3.24 0-6.216-1.78-7.748-4.634l-37.116-69.122a8.792 8.792 0 0 1 7.748-12.954h74.234a8.792 8.792 0 0 1 7.748 12.954l-37.116 69.122a8.796 8.796 0 0 1-7.75 4.634z m-22.412-69.124l22.412 41.738 22.412-41.738h-44.824z" fill="#4C4372" p-id="6372"></path><path d="M722.948 592.616h37.118l-18.558-34.562-18.56-34.56-18.558 34.56-18.558 34.562z" fill="#FD919E" p-id="6373"></path><path d="M760.066 601.41h-74.234a8.792 8.792 0 0 1-7.748-12.954l37.116-69.122a8.792 8.792 0 0 1 15.496 0l37.116 69.122a8.79 8.79 0 0 1-7.746 12.954z m-59.528-17.588h44.824l-22.412-41.738-22.412 41.738z" fill="#4C4372" p-id="6374"></path><path d="M300.658 440.178a8.796 8.796 0 0 1-8.794-8.794v-87.962c0-48.87 39.758-88.628 88.628-88.628h109.596a8.796 8.796 0 0 1 0 17.588h-109.596c-39.172 0-71.038 31.868-71.038 71.038v87.964a8.796 8.796 0 0 1-8.796 8.794z" fill="#4C4372" p-id="6375"></path><path d="M643.114 769.208H533.52a8.796 8.796 0 0 1 0-17.588h109.594c39.172 0 71.04-31.868 71.04-71.038v-87.964a8.794 8.794 0 1 1 17.588 0v87.964c0.002 48.866-39.758 88.626-88.628 88.626z" fill="#4C4372" p-id="6376"></path><path d="M513.864 386.862a123.27 123.27 0 1 0 246.54 0 123.27 123.27 0 1 0-246.54 0Z" fill="#E8677D" p-id="6377"></path><path d="M513.868 386.86c0 34.832 14.452 66.282 37.678 88.7a122.988 122.988 0 0 0 44.554 8.306c68.08 0 123.272-55.19 123.272-123.272 0-34.832-14.45-66.282-37.678-88.7a122.988 122.988 0 0 0-44.554-8.306c-68.08 0-123.272 55.192-123.272 123.272z" fill="#FD919E" p-id="6378"></path><path d="M637.14 518.974c-72.848 0-132.114-59.266-132.114-132.114 0-72.848 59.266-132.112 132.114-132.112s132.114 59.266 132.114 132.112-59.266 132.114-132.114 132.114z m0-246.638c-63.15 0-114.524 51.376-114.524 114.524 0 63.15 51.376 114.524 114.524 114.524s114.524-51.376 114.524-114.524-51.374-114.524-114.524-114.524z" fill="#4C4372" p-id="6379"></path><path d="M576.842 384.162c0.178-35.144 29.642-63.722 65.14-63.898 15.62 0 29.82 5.148 41.002 13.844 4.26 3.55 4.97 9.762 1.776 14.2-3.55 4.436-10.116 5.148-14.2 1.952-7.81-6.39-17.572-9.762-28.576-9.762-12.246 0-23.606 4.97-31.95 12.78-7.986 8.164-12.958 18.814-12.958 30.884s4.97 23.074 12.958 30.884c8.342 7.81 19.702 12.78 31.95 12.78 11.006 0 20.59-3.372 28.576-9.762 4.082-3.018 10.65-2.308 14.2 1.952 3.196 4.436 2.484 10.828-1.776 14.2-11.182 8.698-25.382 13.844-41.002 13.844-35.498-0.002-64.962-28.578-65.14-63.898z" fill="#4C4372" p-id="6380"></path><path d="M560.19 394.612c-5.232 0-9.282-4.05-9.282-9.282 0-5.062 4.05-9.45 9.282-9.45h99.562c5.232 0 9.282 4.388 9.282 9.45 0 5.232-4.05 9.282-9.282 9.282h-99.562z" fill="#4C4372" p-id="6381"></path></svg>