<?xml version="1.0" standalone="no"?><!DOCTYPE svg PUBLIC "-//W3C//DTD SVG 1.1//EN" "http://www.w3.org/Graphics/SVG/1.1/DTD/svg11.dtd"><svg t="1714139245534" class="icon" viewBox="0 0 1024 1024" version="1.1" xmlns="http://www.w3.org/2000/svg" p-id="30665" xmlns:xlink="http://www.w3.org/1999/xlink" width="200" height="200"><path d="M726.208175 449.474968 726.208175 301.375955c0-62.936401-20.658506-122.263601-58.169841-167.05269-38.388309-45.834908-89.738837-71.076802-144.594189-71.076802l-24.463158 0c-54.855352 0-106.206904 25.241894-144.594189 71.076802-37.511335 44.788066-58.169841 104.115266-58.169841 167.05269l0 148.099013L102.467231 449.474968l0 509.481643 817.491693 0L919.958924 449.474968 726.208175 449.474968zM337.149205 301.375955c0-108.73447 72.597435-197.197244 161.831782-197.197244l24.463158 0c89.234347 0 161.831782 88.462774 161.831782 197.197244l0 148.099013L337.149205 449.474968 337.149205 301.375955zM879.026676 918.024363 143.399479 918.024363 143.399479 490.407216l152.817478 0 429.991218 0 152.818501 0L879.026676 918.024363z" p-id="30666"></path><path d="M511.212566 557.2506c-58.735729 0-106.521059 47.784306-106.521059 106.521059 0 51.737338 37.077453 94.969978 86.054935 104.539938l0 89.784886 40.932248 0 0-89.784886c48.976458-9.570983 86.054935-52.803623 86.054935-104.539938C617.733625 605.034906 569.949318 557.2506 511.212566 557.2506zM511.212566 729.359446c-36.165688 0-65.588811-29.423123-65.588811-65.588811s29.423123-65.588811 65.588811-65.588811c36.165688 0 65.588811 29.423123 65.588811 65.588811S547.378254 729.359446 511.212566 729.359446z" p-id="30667"></path></svg>