<?xml version="1.0" standalone="no"?><!DOCTYPE svg PUBLIC "-//W3C//DTD SVG 1.1//EN" "http://www.w3.org/Graphics/SVG/1.1/DTD/svg11.dtd"><svg t="1714125041389" class="icon" viewBox="0 0 1024 1024" version="1.1" xmlns="http://www.w3.org/2000/svg" p-id="4330" xmlns:xlink="http://www.w3.org/1999/xlink" width="200" height="200"><path d="M0 0h1024v1024H0z" fill="#46A1C3" opacity=".004" p-id="4331"></path><path d="M512.810667 831.914667a220.032 220.032 0 0 1-54.570667 40.362666A206.122667 206.122667 0 0 1 362.965333 896a201.642667 201.642667 0 0 1-66.858666-11.52 207.872 207.872 0 0 1-120.149334-110.933333l-47.914666 24.96 24.192-158.634667 131.84 77.397333-50.816 26.496a195.328 195.328 0 0 0 102.016 89.386667 176.384 176.384 0 0 0 145.066666-8.533333 187.733333 187.733333 0 0 0 18.346667-10.922667 266.026667 266.026667 0 0 1-39.338667-221.056 266.24 266.24 0 1 1 46.592-395.221333 220.714667 220.714667 0 0 1 59.733334-45.610667 205.397333 205.397333 0 0 1 95.317333-23.850667 200.149333 200.149333 0 0 1 66.816 11.562667 207.872 207.872 0 0 1 120.149333 110.933333l47.914667-25.002666-24.192 158.677333-131.882667-77.397333 50.858667-26.496a195.84 195.84 0 0 0-101.845333-89.258667 176.384 176.384 0 0 0-145.066667 8.533333 187.733333 187.733333 0 0 0-23.722667 14.72 266.112 266.112 0 0 1 44.373334 228.224 266.197333 266.197333 0 1 1-51.626667 389.461334z m159.786666-44.245334c9.984 2.773333 18.218667 4.992 25.898667 7.04l-13.354667 56.448 32.597334 8.533334 13.482666-57.130667a217.6 217.6 0 0 0 42.666667 4.949333 68.266667 68.266667 0 0 0 72.533333-51.498666 61.610667 61.610667 0 0 0-29.866666-83.584 54.101333 54.101333 0 0 0 41.6-50.645334c5.12-36.010667-15.616-61.184-65.322667-79.274666l13.354667-56.618667-32.597334-8.533333-13.013333 55.125333c-7.893333-2.090667-16.170667-4.266667-24.192-6.058667l-2.176-0.469333 13.056-55.466667-32.554667-8.533333-13.354666 56.490667-3.413334-0.725334a1140.053333 1140.053333 0 0 0-17.322666-4.266666l-44.970667-12.245334-8.533333 36.821334 3.584 0.853333a243.2 243.2 0 0 1 20.096 5.376 18.304 18.304 0 0 1 15.189333 20.096l-15.189333 64.512a21.333333 21.333333 0 0 1 3.413333 1.152l-3.456-0.938667-21.333333 90.368a11.904 11.904 0 0 1-11.008 8.533334 15.914667 15.914667 0 0 1-3.925334-0.512c-1.450667 0-21.333333-5.589333-23.68-6.229334l-16.170666 39.466667 42.410666 11.178667 15.488 4.266666 7.722667 2.133334-13.482667 57.258666 32.554667 8.533334 13.354667-56.576zM196.224 456.32v23.978667a7.125333 7.125333 0 0 0 7.04 7.381333h75.946667v68.138667a7.210667 7.210667 0 0 0 7.253333 7.381333h41.557333a7.210667 7.210667 0 0 0 7.253334-7.381333v-68.266667h76.202666a7.381333 7.381333 0 0 0 7.253334-7.381333v-23.850667a7.338667 7.338667 0 0 0-7.253334-7.381333H335.274667v-32.256h76.202666a7.381333 7.381333 0 0 0 7.253334-7.381334v-24.149333a7.381333 7.381333 0 0 0-7.253334-7.424H353.749333L443.733333 216.576a7.594667 7.594667 0 0 0 0-7.381333 7.125333 7.125333 0 0 0-6.058666-3.754667h-46.933334a7.552 7.552 0 0 0-6.528 3.84l-76.8 145.621333L229.973333 209.322667a7.381333 7.381333 0 0 0-6.229333-3.84h-46.933333a7.509333 7.509333 0 0 0-6.272 3.754666 7.936 7.936 0 0 0 0 7.381334l90.197333 161.28H203.264a7.168 7.168 0 0 0-7.04 7.424v23.978666a7.125333 7.125333 0 0 0 7.04 7.381334h75.946667v32.256h-75.946667a7.125333 7.125333 0 0 0-7.04 7.381333z m493.184 291.498667c-2.346667-0.64-4.266667-1.28-6.272-1.706667l17.92-75.861333 7.936 1.962666c27.264 6.442667 83.925333 19.925333 74.410667 60.074667-3.925333 16.810667-17.408 25.301333-40.021334 25.301333a212.522667 212.522667 0 0 1-53.973333-9.770666z m25.216-110.933334l-5.418667-1.493333 16.256-68.821333c1.834667 0.512 4.266667 1.024 6.698667 1.621333a96.298667 96.298667 0 0 1 58.069333 29.013333 30.336 30.336 0 0 1 3.285334 23.893334c-3.669333 15.658667-15.616 23.637333-35.498667 23.637333a167.338667 167.338667 0 0 1-43.392-7.850667z" fill="#46A1C3" p-id="4332"></path></svg>