<?xml version="1.0" standalone="no"?><!DOCTYPE svg PUBLIC "-//W3C//DTD SVG 1.1//EN" "http://www.w3.org/Graphics/SVG/1.1/DTD/svg11.dtd"><svg t="1714125579158" class="icon" viewBox="0 0 1024 1024" version="1.1" xmlns="http://www.w3.org/2000/svg" p-id="8243" xmlns:xlink="http://www.w3.org/1999/xlink" width="200" height="200"><path d="M610.304 601.1392h-60.8768a143.2064 143.2064 0 0 0 124.0064 71.4752h143.2064a143.0528 143.0528 0 0 0 141.9776-142.9504 143.0528 143.0528 0 0 0-141.9776-142.9504h-143.2064c-51.2 0-98.4576 27.2384-124.0064 71.4752h60.8768c17.408-15.36 39.8848-23.8592 63.1296-23.808h143.2064c52.736 0 95.4368 42.6496 95.4368 95.232a95.3856 95.3856 0 0 1-95.4368 95.3344h-143.2064c-23.2448 0.0512-45.7216-8.3968-63.1296-23.808z m-99.072 0z m-124.0064 71.4752c51.2 0 98.4576-27.2384 124.0064-71.4752H450.4064c-17.408 15.36-39.936 23.8592-63.1808 23.808H244.0704a95.488 95.488 0 0 1-82.688-47.616 95.1808 95.1808 0 0 1 0-95.2832c17.0496-29.4912 48.5888-47.6672 82.688-47.6672h143.1552c23.2448-0.0512 45.7216 8.3968 63.1296 23.808h60.928a143.1552 143.1552 0 0 0-124.0576-71.4752H244.0192a143.0528 143.0528 0 0 0-141.9776 142.9504 143.0528 143.0528 0 0 0 141.9776 142.9504h143.2064z" fill="#324FFF" p-id="8244"></path><path d="M649.6768 529.664a23.808 23.808 0 0 1-23.8592 23.808h-190.976a23.8592 23.8592 0 1 1 0.0512-47.616h190.9248c13.1584 0 23.8592 10.6496 23.8592 23.808z" fill="#70BEFF" p-id="8245"></path></svg>