<?xml version="1.0" standalone="no"?><!DOCTYPE svg PUBLIC "-//W3C//DTD SVG 1.1//EN" "http://www.w3.org/Graphics/SVG/1.1/DTD/svg11.dtd"><svg t="1714135190472" class="icon" viewBox="0 0 1024 1024" version="1.1" xmlns="http://www.w3.org/2000/svg" p-id="27604" xmlns:xlink="http://www.w3.org/1999/xlink" width="200" height="200"><path d="M512 182.860434c-181.776468 0-329.139566 147.363098-329.139566 329.139566s147.363098 329.139566 329.139566 329.139566 329.139566-147.363098 329.139566-329.139566-147.363098-329.139566-329.139566-329.139566z m0 621.708069c-161.589241 0-292.568503-130.979262-292.568503-292.568503s130.979262-292.568503 292.568503-292.568503 292.568503 130.979262 292.568503 292.568503-130.979262 292.568503-292.568503 292.568503z" fill="#384584" p-id="27605"></path><path d="M621.713189 502.674379a81.919181 81.919181 0 0 0 8.228489-36.571063 79.176351 79.176351 0 0 0-34.74251-66.376479 107.336069 107.336069 0 0 0-40.59388-15.725557v-42.788144a18.285531 18.285531 0 1 0-36.571063 0v38.216761h-35.10822v-38.216761a18.285531 18.285531 0 1 0-36.571063 0v38.216761H420.572343a36.571063 36.571063 0 0 0-36.571063 36.571063v191.99808a36.571063 36.571063 0 0 0 36.571063 36.571063h25.782599v38.033905a18.285531 18.285531 0 1 0 36.571063 0v-38.033905h35.10822v38.033905a18.285531 18.285531 0 1 0 36.571063 0v-40.411024a119.221665 119.221665 0 0 0 49.005225-18.285532 81.55347 81.55347 0 0 0 36.571062-69.302164 83.199168 83.199168 0 0 0-16.822689-51.748054z m-39.313893 91.427657a104.776095 104.776095 0 0 1-58.696556 13.714149h-91.610512a11.519885 11.519885 0 0 1-11.519885-11.519885v-168.775455a11.519885 11.519885 0 0 1 11.519885-11.519885h86.856274a97.279027 97.279027 0 0 1 55.953726 13.531293 42.788144 42.788144 0 0 1 19.199808 36.571063 45.165263 45.165263 0 0 1-25.782599 41.691012 54.856594 54.856594 0 0 1 25.782599 18.285531 46.81096 46.81096 0 0 1 9.325621 29.25685 44.250986 44.250986 0 0 1-20.29694 38.948182z" fill="#EAA850" p-id="27606"></path><path d="M539.245442 473.600384c0-12.251306-9.142766-18.285531-27.428297-18.285531h-36.571063v36.571062h36.571063c18.285531 0.237712 27.428297-5.85137 27.428297-18.285531zM520.045634 530.285531h-45.713829v38.399616h45.713829c18.285531 0 28.525429-6.399936 28.525429-19.382663 0-12.982727-9.508476-19.016953-28.525429-19.016953z" fill="#EAA850" p-id="27607"></path><path d="M512 160.00352a18.285531 18.285531 0 0 0 18.285531-18.285531V71.867258h173.712549a53.576607 53.576607 0 1 0 0-36.571062H512a18.285531 18.285531 0 0 0-18.285531 18.285531v88.136262a18.285531 18.285531 0 0 0 18.285531 18.285531zM754.100436 36.576183a17.005544 17.005544 0 1 1-16.822689 17.005544c0-9.325621 7.497068-16.914117 16.822689-17.005544z" fill="#384584" p-id="27608"></path><path d="M988.703804 703.99808V512a18.285531 18.285531 0 0 0-18.285531-18.285531h-88.136261a18.285531 18.285531 0 1 0 0 36.571062h69.85073v173.712549a53.576607 53.576607 0 1 0 36.571062 0z m-18.285531 67.1079a17.005544 17.005544 0 1 1 17.005544-16.822689 17.005544 17.005544 0 0 1-17.005544 16.822689zM512 863.99648a18.285531 18.285531 0 0 0-18.285531 18.285531v69.850731h-173.895404a53.576607 53.576607 0 1 0 0 36.571062H512a18.285531 18.285531 0 0 0 18.285531-18.285531v-88.136262a18.285531 18.285531 0 0 0-18.285531-18.285531zM269.716709 987.423817a17.005544 17.005544 0 1 1 17.005544-17.005544 17.005544 17.005544 0 0 1-17.005544 17.005544zM141.717989 493.714469H71.867259v-173.712549a53.576607 53.576607 0 1 0-36.571063 0V512a18.285531 18.285531 0 0 0 18.285531 18.285531h88.136262a18.285531 18.285531 0 1 0 0-36.571062zM53.581727 286.722253a17.005544 17.005544 0 1 1 17.005544-17.005544 17.005544 17.005544 0 0 1-17.005544 17.005544z" fill="#384584" p-id="27609"></path><path d="M406.126773 160.00352a18.285531 18.285531 0 0 0 18.285531-18.285531V36.576183a18.285531 18.285531 0 1 0-36.571062 0v105.141806a18.285531 18.285531 0 0 0 18.285531 18.285531z" fill="#EAA850" p-id="27610"></path><path d="M603.427657 123.432457v18.285532a18.285531 18.285531 0 1 0 36.571063 0v-18.285532a18.285531 18.285531 0 1 0-36.571063 0zM426.789424 900.567543v-18.285532a18.285531 18.285531 0 1 0-36.571063 0v18.285532a18.285531 18.285531 0 1 0 36.571063 0z" fill="#384584" p-id="27611"></path><path d="M617.690372 863.99648a18.285531 18.285531 0 0 0-18.285532 18.285531V987.423817a18.285531 18.285531 0 1 0 36.571063 0v-105.141806a18.285531 18.285531 0 0 0-18.285531-18.285531z" fill="#EAA850" p-id="27612"></path><path d="M141.717989 599.587696H36.576183a18.285531 18.285531 0 1 0 0 36.571062h105.141806a18.285531 18.285531 0 1 0 0-36.571062zM882.282012 424.412304H987.423817a18.285531 18.285531 0 1 0 0-36.571062h-105.141805a18.285531 18.285531 0 1 0 0 36.571062z" fill="#EAA850" p-id="27613"></path><path d="M144.826529 387.10982h-18.285532a18.285531 18.285531 0 1 0 0 36.571063h18.285532a18.285531 18.285531 0 1 0 0-36.571063zM903.676083 600.319117h-18.285531a18.285531 18.285531 0 1 0 0 36.571063h18.285531a18.285531 18.285531 0 1 0 0-36.571063z" fill="#384584" p-id="27614"></path></svg>