<?xml version="1.0" standalone="no"?><!DOCTYPE svg PUBLIC "-//W3C//DTD SVG 1.1//EN" "http://www.w3.org/Graphics/SVG/1.1/DTD/svg11.dtd"><svg t="1714125670282" class="icon" viewBox="0 0 1024 1024" version="1.1" xmlns="http://www.w3.org/2000/svg" p-id="11148" xmlns:xlink="http://www.w3.org/1999/xlink" width="200" height="200"><path d="M806.688 85.088l-85.312-10.656A32 32 0 0 1 729.28 10.88l170.656 21.344a32 32 0 0 1 27.776 35.712l-21.312 170.656a32 32 0 0 1-63.52-7.936l12.672-101.28L145.76 602.624a32 32 0 1 1-35.52-53.248L806.72 85.056zM992.416 928A32 32 0 0 1 992 992H32a32 32 0 0 1 0-64h0.416v-68.576a32 32 0 0 1 32-32h128a32 32 0 0 1 32 32V928h64v-239.264a32 32 0 0 1 32-32h128a32 32 0 0 1 32 32V928h64V518.08a32 32 0 0 1 32-32h128a32 32 0 0 1 32 32V928h64V347.424a32 32 0 0 1 32-32h128a32 32 0 0 1 32 32V928z m-64 0V379.424h-64V928h64z m-320 0h64V550.08h-64V928z m-192 0v-207.264h-64V928h64z m-320 0h64v-36.576h-64V928z" fill="#1296db" p-id="11149"></path></svg>